<svg width="1124" height="269" viewBox="0 0 1124 269" fill="none" xmlns="http://www.w3.org/2000/svg">
<path fill-rule="evenodd" clip-rule="evenodd" d="M602.763 43.0092C602.763 40.8178 600.986 39.0416 598.795 39.0416C592.3 39.0416 579.475 39.0416 572.981 39.0416C570.789 39.0416 569.012 40.8178 569.012 43.0092C569.012 67.8031 569.012 201.196 569.012 225.99C569.012 228.181 570.789 229.958 572.981 229.958C579.475 229.958 592.3 229.958 598.795 229.958C600.986 229.958 602.763 228.181 602.763 225.99C602.763 201.196 602.763 67.8031 602.763 43.0092Z" fill="#2C2C2C"/>
<path fill-rule="evenodd" clip-rule="evenodd" d="M382.166 43.0116C382.166 40.8202 383.943 39.044 386.134 39.044C408.489 39.044 518.511 39.044 540.866 39.044C543.057 39.044 544.833 40.8202 544.833 43.0116C544.833 48.8681 544.833 59.7647 544.833 65.6224C544.833 67.8138 543.057 69.5899 540.866 69.5899C529.328 69.5899 495.879 69.5899 484.341 69.5899C482.151 69.5899 480.374 71.3661 480.374 73.5576C480.374 95.7056 480.374 203.841 480.374 225.99C480.374 228.181 478.597 229.958 476.406 229.958C469.913 229.958 457.089 229.958 450.595 229.958C448.404 229.958 446.628 228.181 446.628 225.99C446.628 203.841 446.628 95.7056 446.628 73.5576C446.628 72.5051 446.21 71.4966 445.466 70.7515C444.721 70.0076 443.712 69.5899 442.66 69.5899C431.122 69.5899 397.671 69.5899 386.134 69.5899C383.943 69.5899 382.166 67.8138 382.166 65.6224C382.166 59.7647 382.166 48.8681 382.166 43.0116Z" fill="#2C2C2C"/>
<path fill-rule="evenodd" clip-rule="evenodd" d="M691.4 73.5576C691.4 72.5051 690.982 71.4967 690.239 70.7515C689.495 70.0076 688.486 69.5899 687.433 69.5899C675.895 69.5899 642.444 69.5899 630.907 69.5899C629.855 69.5899 628.845 69.1723 628.101 68.4272C627.357 67.6833 626.939 66.6747 626.939 65.6224C626.939 59.7647 626.939 48.8669 626.939 43.0092C626.939 40.8178 628.716 39.0416 630.907 39.0416C653.262 39.0416 763.286 39.0416 785.64 39.0416C787.832 39.0416 789.608 40.8178 789.608 43.0092C789.608 48.8669 789.608 59.7647 789.608 65.6224C789.608 67.8138 787.832 69.5899 785.64 69.5899H729.117C726.925 69.5899 725.149 71.3661 725.149 73.5576C725.149 95.7056 725.149 203.841 725.149 225.99C725.149 228.181 723.373 229.958 721.182 229.958C714.686 229.958 701.862 229.958 695.368 229.958C693.178 229.958 691.4 228.181 691.4 225.99C691.4 203.841 691.4 95.7056 691.4 73.5576Z" fill="#2C2C2C"/>
<path fill-rule="evenodd" clip-rule="evenodd" d="M867.447 39.0416C869.114 39.0416 870.603 40.0857 871.174 41.653C878.606 62.0724 927.395 196.125 937.771 224.632C938.214 225.85 938.036 227.206 937.293 228.266C936.55 229.326 935.337 229.958 934.042 229.958C926.23 229.958 912.451 229.958 906.576 229.958C904.908 229.958 903.419 228.914 902.849 227.347C896.436 209.732 859.554 108.398 853.2 90.9408C853.056 90.5492 852.685 90.2881 852.267 90.2881C851.851 90.2881 851.478 90.5492 851.334 90.9408C844.981 108.398 808.104 209.73 801.694 227.347C801.123 228.914 799.633 229.958 797.964 229.958H770.496C769.201 229.958 767.989 229.326 767.246 228.266C766.504 227.206 766.324 225.85 766.768 224.633C777.142 196.125 825.928 62.0736 833.359 41.653C833.929 40.0857 835.419 39.0416 837.087 39.0416H867.447Z" fill="#2C2C2C"/>
<path fill-rule="evenodd" clip-rule="evenodd" d="M992.185 39.0416C993.462 39.0416 994.663 39.661 995.412 40.7039C1005.39 54.6854 1075.24 152.539 1087.39 169.566C1087.64 169.918 1088.09 170.068 1088.5 169.936C1088.92 169.803 1089.19 169.422 1089.19 168.99C1089.19 151.266 1089.19 62.8744 1089.19 43.0092C1089.19 41.9568 1089.61 40.9483 1090.36 40.2044C1091.1 39.4593 1092.11 39.0416 1093.16 39.0416C1099.66 39.0416 1112.48 39.0416 1118.97 39.0416C1121.17 39.0416 1122.93 40.8178 1122.93 43.0092C1122.93 67.7889 1122.93 201.038 1122.93 225.946C1122.93 227.01 1122.51 228.03 1121.76 228.783C1121.01 229.535 1119.99 229.958 1118.93 229.958C1111.69 229.958 1096.69 229.958 1091.23 229.958C1089.95 229.958 1088.75 229.338 1088 228.294C1078.02 214.312 1008.15 116.43 996.018 99.4291C995.768 99.0775 995.316 98.9296 994.913 99.0612C994.5 99.1928 994.221 99.5733 994.221 100.003C994.221 117.702 994.221 206.122 994.221 225.99C994.221 228.181 992.444 229.958 990.254 229.958C983.759 229.958 970.934 229.958 964.44 229.958C962.25 229.958 960.473 228.181 960.473 225.99C960.473 201.196 960.473 67.8031 960.473 43.0092C960.473 40.8178 962.25 39.0416 964.44 39.0416C971.664 39.0416 986.709 39.0416 992.185 39.0416Z" fill="#2C2C2C"/>
<path fill-rule="evenodd" clip-rule="evenodd" d="M163.017 254.232C162.154 255.44 162.039 257.031 162.719 258.352C163.4 259.673 164.76 260.504 166.247 260.504H211.022C212.303 260.504 213.506 259.885 214.251 258.842C220.482 250.113 250.011 208.743 273.321 176.086C291.08 151.206 291.08 117.793 273.321 92.9126C250.011 60.257 220.482 18.888 214.251 10.1591C213.506 9.11611 212.303 8.49677 211.021 8.49677C203.766 8.49677 178.99 8.49677 166.247 8.49677C164.76 8.49677 163.4 9.3273 162.719 10.6479C162.039 11.9696 162.154 13.5607 163.017 14.7697C176.525 33.6929 217.162 90.6227 237.143 118.613C243.928 128.119 243.928 140.885 237.143 150.389C217.162 178.381 176.525 235.309 163.017 254.232Z" fill="#D033A8"/>
<path fill-rule="evenodd" clip-rule="evenodd" d="M163.017 254.232C162.154 255.44 162.039 257.031 162.719 258.352C163.4 259.673 164.76 260.504 166.247 260.504H211.022C212.303 260.504 213.506 259.885 214.251 258.842C220.482 250.113 250.011 208.743 273.321 176.086C291.08 151.206 291.08 117.793 273.321 92.9126C250.011 60.257 220.482 18.888 214.251 10.1591C213.506 9.11611 212.303 8.49677 211.021 8.49677C203.766 8.49677 178.99 8.49677 166.247 8.49677C164.76 8.49677 163.4 9.3273 162.719 10.6479C162.039 11.9696 162.154 13.5607 163.017 14.7697C176.525 33.6929 217.162 90.6227 237.143 118.613C243.928 128.119 243.928 140.885 237.143 150.389C217.162 178.381 176.525 235.309 163.017 254.232Z" fill="#272727" fill-opacity="0.2"/>
<path fill-rule="evenodd" clip-rule="evenodd" d="M123.623 14.7685C124.486 13.5595 124.602 11.9684 123.921 10.6479C123.242 9.32614 121.88 8.49561 120.394 8.49561H75.6194C74.3368 8.49561 73.1338 9.11495 72.3898 10.1578C66.1586 18.8868 36.6292 60.2571 13.3192 92.9139C-4.43952 117.794 -4.43952 151.207 13.3204 176.087C36.6304 208.743 66.1599 250.112 72.3898 258.841C73.1349 259.884 74.3368 260.503 75.6194 260.503C82.8744 260.503 107.651 260.503 120.395 260.503C121.88 260.503 123.242 259.672 123.921 258.352C124.602 257.03 124.486 255.44 123.623 254.23C110.116 235.307 69.4784 178.378 49.4974 150.387C42.7122 140.881 42.7122 128.115 49.4974 118.611C69.4784 90.6192 110.116 33.6918 123.623 14.7685Z" fill="#D033A8"/>
<path fill-rule="evenodd" clip-rule="evenodd" d="M123.623 14.7685C124.486 13.5595 124.602 11.9684 123.921 10.6479C123.242 9.32614 121.88 8.49561 120.394 8.49561H75.6194C74.3368 8.49561 73.1338 9.11495 72.3898 10.1578C66.1586 18.8868 36.6292 60.2571 13.3192 92.9139C-4.43952 117.794 -4.43952 151.207 13.3204 176.087C36.6304 208.743 66.1599 250.112 72.3898 258.841C73.1349 259.884 74.3368 260.503 75.6194 260.503C82.8744 260.503 107.651 260.503 120.395 260.503C121.88 260.503 123.242 259.672 123.921 258.352C124.602 257.03 124.486 255.44 123.623 254.23C110.116 235.307 69.4784 178.378 49.4974 150.387C42.7122 140.881 42.7122 128.115 49.4974 118.611C69.4784 90.6192 110.116 33.6918 123.623 14.7685Z" fill="#272727" fill-opacity="0.2"/>
<path d="M258.024 71.4847C258.024 71.4847 264.902 81.119 273.278 92.8533C291.063 117.769 291.063 151.23 273.278 176.146C249.976 208.793 220.478 250.118 214.251 258.842C213.506 259.885 212.303 260.504 211.022 260.504C203.766 260.504 178.99 260.504 166.247 260.504C164.76 260.504 163.4 259.674 162.719 258.352C162.039 257.031 162.154 255.44 163.017 254.232C182.381 227.104 257.945 121.248 257.945 121.248L257.933 121.236C262.799 114.134 265.646 105.543 265.646 96.2934C265.646 87.1012 262.834 78.561 258.024 71.4847Z" fill="#D033A8"/>
<path fill-rule="evenodd" clip-rule="evenodd" d="M28.6159 197.515C28.6159 197.515 21.7381 187.881 13.3618 176.147C-4.42301 151.231 -4.42301 117.771 13.3618 92.8545C36.6647 60.2072 66.1633 18.8821 72.3898 10.1578C73.1337 9.11495 74.3368 8.49561 75.6193 8.49561C82.8744 8.49561 107.651 8.49561 120.393 8.49561C121.88 8.49561 123.242 9.32614 123.922 10.6479C124.602 11.9684 124.486 13.5595 123.623 14.7685C104.259 41.8963 28.6954 147.752 28.6954 147.752L28.7073 147.764C23.8416 154.866 20.9954 163.457 20.9954 172.707C20.9954 181.899 23.8061 190.44 28.6159 197.515Z" fill="#D033A8"/>
</svg>
