<svg xmlns="http://www.w3.org/2000/svg" width="22" height="22" viewBox="0 0 22 22" fill="none">
    <g clip-path="url(#clip0_3520_1730)">
        <mask id="mask0_3520_1730" style="mask-type:luminance" maskUnits="userSpaceOnUse" x="0"
            y="0" width="22" height="22">
            <path d="M0 -0.000324249H21.3333V21.333H0V-0.000324249Z" fill="white" />
        </mask>
        <g mask="url(#mask0_3520_1730)">
            <path d="M18.509 2.2832H18.5117H19.4663V0.288537H18.509H18.213H14.8677V2.2832H18.509Z"
                fill="white" />
        </g>
        <mask id="mask1_3520_1730" style="mask-type:luminance" maskUnits="userSpaceOnUse" x="0"
            y="0" width="22" height="22">
            <path d="M0 -0.000324249H21.3333V21.333H0V-0.000324249Z" fill="white" />
        </mask>
        <g mask="url(#mask1_3520_1730)">
            <path
                d="M18.992 5.01232C18.752 4.74298 18.0907 4.14832 16.9174 4.12165H16.8747H14.8667V6.12698H16.8747H16.8774C17.4214 6.16432 17.8307 6.55498 17.8307 7.04032C17.8307 7.04432 17.8294 7.04698 17.8294 7.05098C17.8227 7.59098 17.3494 7.95365 16.9054 7.95365H16.8747H12.9134V7.95232H11.6094V9.95898H12.6174H12.9134H16.8747H16.9054C18.512 9.95898 19.8187 8.65498 19.824 7.05098C19.824 7.04698 19.824 7.04432 19.824 7.04032C19.824 6.27498 19.5294 5.55498 18.992 5.01232Z"
                fill="white" />
        </g>
        <mask id="mask2_3520_1730" style="mask-type:luminance" maskUnits="userSpaceOnUse" x="0"
            y="0" width="22" height="22">
            <path d="M0 -0.000324249H21.3333V21.333H0V-0.000324249Z" fill="white" />
        </mask>
        <g mask="url(#mask2_3520_1730)">
            <path
                d="M13.6555 0.28962C12.0461 0.28962 10.7368 1.59895 10.7368 3.20829C10.7368 3.23095 10.7381 3.25362 10.7381 3.27629C10.7555 4.01629 11.0488 4.70962 11.5688 5.23629C11.8101 5.50562 12.4701 6.10029 13.6435 6.12695H13.9835V4.12162V3.27629V2.28429V0.28962H13.6555Z"
                fill="white" />
        </g>
        <mask id="mask3_3520_1730" style="mask-type:luminance" maskUnits="userSpaceOnUse" x="0"
            y="0" width="22" height="22">
            <path d="M0 -0.000324249H21.3333V21.333H0V-0.000324249Z" fill="white" />
        </mask>
        <g mask="url(#mask3_3520_1730)">
            <path
                d="M4.39656 2.41619H5.31922C6.32989 2.41619 6.86589 2.68419 6.86589 3.51752C6.86589 4.34952 6.32989 4.79619 5.31922 4.79619H4.39656V2.41619ZM9.90056 10.0615L7.79922 6.30819C8.74056 5.80019 9.36456 4.89886 9.36456 3.51752C9.36456 1.10686 7.57922 0.393523 5.49789 0.393523H1.83789V10.0615H4.39656V6.81886H5.37922L7.04456 10.0615H9.90056Z"
                fill="white" />
        </g>
        <mask id="mask4_3520_1730" style="mask-type:luminance" maskUnits="userSpaceOnUse" x="0"
            y="0" width="22" height="22">
            <path d="M0 -0.000324249H21.3333V21.333H0V-0.000324249Z" fill="white" />
        </mask>
        <g mask="url(#mask4_3520_1730)">
            <path
                d="M19.7911 18.0296C19.7738 17.283 19.4791 16.5843 18.9538 16.0536C18.7111 15.7816 18.0444 15.1816 16.8604 15.155H16.5178H13.6951V11.3296H11.7004V15.9083V15.911V17.1763H13.3191V17.1776H16.5178H16.8204C17.3431 17.2136 17.7404 17.5736 17.7778 18.0296C17.7791 18.0523 17.7818 18.075 17.7818 18.099C17.7818 18.6563 17.2991 19.031 16.8484 19.031H16.5178H12.7164L12.7138 19.0323H11.6978V21.043H12.7164H13.0138H16.5178H16.8484C18.4724 21.043 19.7924 19.723 19.7924 18.099C19.7924 18.0763 19.7911 18.0523 19.7911 18.0296Z"
                fill="#F7AA1F" />
        </g>
        <mask id="mask5_3520_1730" style="mask-type:luminance" maskUnits="userSpaceOnUse" x="0"
            y="0" width="22" height="22">
            <path d="M0 -0.000324249H21.3333V21.333H0V-0.000324249Z" fill="white" />
        </mask>
        <g mask="url(#mask5_3520_1730)">
            <path
                d="M14.5938 13.3132V11.3292H18.1431H18.4417H19.4591V13.3546V14.2119H17.4844V13.3146L14.5938 13.3132Z"
                fill="#EC6717" />
        </g>
        <mask id="mask6_3520_1730" style="mask-type:luminance" maskUnits="userSpaceOnUse" x="0"
            y="0" width="22" height="22">
            <path d="M0 -0.000324249H21.3333V21.333H0V-0.000324249Z" fill="white" />
        </mask>
        <g mask="url(#mask6_3520_1730)">
            <path
                d="M5.39697 19.0193V21.042H9.25031H9.54897H10.5663V19.018V18.1607H8.59164V19.018L5.39697 19.0193Z"
                fill="#F391BC" />
        </g>
        <mask id="mask7_3520_1730" style="mask-type:luminance" maskUnits="userSpaceOnUse" x="0"
            y="0" width="22" height="22">
            <path d="M0 -0.000324249H21.3333V21.333H0V-0.000324249Z" fill="white" />
        </mask>
        <g mask="url(#mask7_3520_1730)">
            <path
                d="M7.4748 11.2893H7.14413H3.76947H3.4708H1.8308V13.3013H3.46813H3.4708H7.14413H7.4748C7.92547 13.3013 8.4068 13.6759 8.4068 14.2333C8.4068 14.2573 8.40547 14.2799 8.40413 14.3026C8.3668 14.7599 7.96947 15.1186 7.4468 15.1546H7.14413H4.5108H4.4668C3.28413 15.1826 2.61747 15.7813 2.3748 16.0533C1.83347 16.6013 1.53613 17.3266 1.53613 18.0986C1.53613 18.1026 1.53613 18.1066 1.53613 18.1093C1.54147 19.7279 2.86013 21.0439 4.48013 21.0439H4.5108V19.0199H4.48013C4.03213 19.0199 3.55347 18.6546 3.54813 18.1093C3.54813 18.1066 3.5468 18.1026 3.5468 18.0986C3.5468 17.6093 3.9588 17.2159 4.50813 17.1786H4.5108L7.14413 17.1773H7.4868C8.6708 17.1506 9.33747 16.5519 9.5788 16.2799C10.1041 15.7479 10.4001 15.0493 10.4175 14.3026C10.4175 14.2799 10.4188 14.2573 10.4188 14.2333C10.4188 12.6106 9.0988 11.2893 7.4748 11.2893Z"
                fill="#EC6717" />
        </g>
    </g>
    <defs>
        <clipPath id="clip0_3520_1730">
            <rect width="21.3333" height="21.3333" fill="white" />
        </clipPath>
    </defs>
</svg>