
<!-- rgb(26, 33, 65); -->
<svg xmlns="http://www.w3.org/2000/svg" width="22" height="22" viewBox="0 0 22 22" fill="none">
    <mask id="mask0_3522_1769" style="mask-type:luminance" maskUnits="userSpaceOnUse" x="0" y="0" width="22" height="22">
    <path d="M21.3333 0H0V21.3333H21.3333V0Z" fill="white"/>
    </mask>
    <g mask="url(#mask0_3522_1769)">
    <mask id="mask1_3522_1769" style="mask-type:luminance" maskUnits="userSpaceOnUse" x="0" y="0" width="22" height="22">
    <path d="M0 0H21.3333V21.3333H0V0Z" fill="#FF0000"/>
    </mask>
    <path d="M18.5095 2.28373H18.5122H19.4668V0.289062H18.5095H18.2135H14.8682V2.28373H18.5095Z" fill="#1A2141"/>
    <mask id="mask2_3522_1769" style="mask-type:luminance" maskUnits="userSpaceOnUse" x="0" y="0" width="22" height="22">
    <path d="M0 0H21.3333V21.3333H0V0Z" fill="white"/>
    </mask>
    <g mask="url(#mask2_3522_1769)">
    <path d="M18.992 5.01274C18.752 4.7434 18.0907 4.14874 16.9174 4.12207H16.8747H14.8667V6.1274H16.8747H16.8774C17.4214 6.16474 17.8307 6.5554 17.8307 7.04074C17.8307 7.04474 17.8294 7.0474 17.8294 7.0514C17.8227 7.5914 17.3494 7.95407 16.9054 7.95407H16.8747H12.9134V7.95274H11.6094V9.9594H12.6174H12.9134H16.8747H16.9054C18.512 9.9594 19.8187 8.6554 19.824 7.0514C19.824 7.0474 19.824 7.04474 19.824 7.04074C19.824 6.2754 19.5294 5.5554 18.992 5.01274Z" fill="#1A2141"/>
    </g>
    <mask id="mask3_3522_1769" style="mask-type:luminance" maskUnits="userSpaceOnUse" x="0" y="0" width="22" height="22">
    <path d="M0 0H21.3333V21.3333H0V0Z" fill="white"/>
    </mask>
    <g mask="url(#mask3_3522_1769)">
    <path d="M13.655 0.290039C12.0456 0.290039 10.7363 1.59937 10.7363 3.20871C10.7363 3.23137 10.7376 3.25404 10.7376 3.27671C10.755 4.01671 11.0483 4.71004 11.5683 5.23671C11.8096 5.50604 12.4696 6.10071 13.643 6.12737H13.983V4.12204V3.27671V2.28471V0.290039H13.655Z" fill="#1A2141"/>
    </g>
    <mask id="mask4_3522_1769" style="mask-type:luminance" maskUnits="userSpaceOnUse" x="0" y="0" width="22" height="22">
    <path d="M0 0H21.3333V21.3333H0V0Z" fill="white"/>
    </mask>
    <g mask="url(#mask4_3522_1769)">
    <path d="M4.39656 2.41622H5.31922C6.32989 2.41622 6.86589 2.68422 6.86589 3.51755C6.86589 4.34955 6.32989 4.79622 5.31922 4.79622H4.39656V2.41622ZM9.90056 10.0615L7.79922 6.30822C8.74056 5.80022 9.36456 4.89889 9.36456 3.51755C9.36456 1.10689 7.57922 0.393555 5.49789 0.393555H1.83789V10.0615H4.39656V6.81889H5.37922L7.04456 10.0615H9.90056Z" fill="#1A2141"/>
    </g>
    <mask id="mask5_3522_1769" style="mask-type:luminance" maskUnits="userSpaceOnUse" x="0" y="0" width="22" height="22">
    <path d="M0 0H21.3333V21.3333H0V0Z" fill="white"/>
    </mask>
    <g mask="url(#mask5_3522_1769)">
    <path d="M19.7915 18.0301C19.7742 17.2835 19.4795 16.5848 18.9542 16.0541C18.7115 15.7821 18.0448 15.1821 16.8608 15.1555H16.5182H13.6955V11.3301H11.7008V15.9088V15.9115V17.1768H13.3195V17.1781H16.5182H16.8208C17.3435 17.2141 17.7408 17.5741 17.7782 18.0301C17.7795 18.0528 17.7822 18.0755 17.7822 18.0995C17.7822 18.6568 17.2995 19.0315 16.8488 19.0315H16.5182H12.7168L12.7142 19.0328H11.6982V21.0435H12.7168H13.0142H16.5182H16.8488C18.4728 21.0435 19.7928 19.7235 19.7928 18.0995C19.7928 18.0768 19.7915 18.0528 19.7915 18.0301Z" fill="#F7AA1F"/>
    </g>
    <mask id="mask6_3522_1769" style="mask-type:luminance" maskUnits="userSpaceOnUse" x="0" y="0" width="22" height="22">
    <path d="M0 0H21.3333V21.3333H0V0Z" fill="white"/>
    </mask>
    <g mask="url(#mask6_3522_1769)">
    <path d="M14.5938 13.3131V11.3291H18.1431H18.4417H19.4591V13.3545V14.2118H17.4844V13.3145L14.5938 13.3131Z" fill="#EC6717"/>
    </g>
    <mask id="mask7_3522_1769" style="mask-type:luminance" maskUnits="userSpaceOnUse" x="0" y="0" width="22" height="22">
    <path d="M0 0H21.3333V21.3333H0V0Z" fill="white"/>
    </mask>
    <g mask="url(#mask7_3522_1769)">
    <path d="M5.39648 19.0197V21.0424H9.24982H9.54848H10.5658V19.0184V18.1611H8.59116V19.0184L5.39648 19.0197Z" fill="#F391BC"/>
    </g>
    <mask id="mask8_3522_1769" style="mask-type:luminance" maskUnits="userSpaceOnUse" x="0" y="0" width="22" height="22">
    <path d="M0 0H21.3333V21.3333H0V0Z" fill="white"/>
    </mask>
    <g mask="url(#mask8_3522_1769)">
    <path d="M7.4748 11.29H7.14413H3.76947H3.4708H1.8308V13.302H3.46813H3.4708H7.14413H7.4748C7.92547 13.302 8.4068 13.6766 8.4068 14.234C8.4068 14.258 8.40547 14.2806 8.40413 14.3033C8.3668 14.7606 7.96947 15.1193 7.4468 15.1553H7.14413H4.5108H4.4668C3.28413 15.1833 2.61747 15.782 2.3748 16.054C1.83347 16.602 1.53613 17.3273 1.53613 18.0993C1.53613 18.1033 1.53613 18.1073 1.53613 18.11C1.54147 19.7286 2.86013 21.0446 4.48013 21.0446H4.5108V19.0206H4.48013C4.03213 19.0206 3.55347 18.6553 3.54813 18.11C3.54813 18.1073 3.5468 18.1033 3.5468 18.0993C3.5468 17.61 3.9588 17.2166 4.50813 17.1793H4.5108L7.14413 17.178H7.4868C8.6708 17.1513 9.33747 16.5526 9.5788 16.2806C10.1041 15.7486 10.4001 15.05 10.4175 14.3033C10.4175 14.2806 10.4188 14.258 10.4188 14.234C10.4188 12.6113 9.0988 11.29 7.4748 11.29Z" fill="#EC6717"/>
    </g>
    </g>
    </svg>