<svg xmlns="http://www.w3.org/2000/svg" id="Layer_1" viewBox="0 0 205.04 212.16">
    <path fill="inherit"
        d="M179.09,178.15l-43.4-21.47c-2.5-1.24-5.45.46-5.64,3.24l-3.28,48.58c-.14,2.05-1.85,3.65-3.9,3.65h-40.69c-2.06,0-3.77-1.6-3.9-3.65l-3.26-48.58c-.19-2.78-3.14-4.48-5.64-3.25l-43.4,21.47c-1.85.91-4.08.24-5.12-1.54L.53,141.63c-1.04-1.79-.51-4.08,1.21-5.22l40.63-27.07c2.32-1.55,2.32-4.96,0-6.51L1.74,75.73c-1.72-1.15-2.25-3.44-1.21-5.22l20.32-34.96c1.03-1.78,3.27-2.45,5.12-1.54l43.4,21.45c2.5,1.24,5.45-.46,5.64-3.25l3.26-48.56c.14-2.05,1.85-3.65,3.9-3.65h40.69c2.06,0,3.77,1.6,3.9,3.65l3.28,48.57c.19,2.78,3.14,4.48,5.64,3.24l43.4-21.45c1.85-.91,4.08-.24,5.12,1.54l20.31,34.96c1.04,1.79.51,4.07-1.21,5.22l-40.62,27.09c-2.32,1.55-2.32,4.96,0,6.51l40.62,27.07c1.72,1.15,2.25,3.43,1.21,5.22l-20.31,34.97c-1.03,1.78-3.27,2.46-5.12,1.54Z" />
</svg>