<svg xmlns="http://www.w3.org/2000/svg" width="1131" height="417" viewBox="0 0 1131 417" fill="none">
    <path
        d="M76.8293 63.5769H104.524C134.899 63.5769 150.979 71.6195 150.979 96.6329C150.979 121.646 134.899 135.048 104.524 135.048H76.8293V63.5769ZM242.104 293.173L179.004 180.43C207.265 165.209 226.023 138.114 226.023 96.6329C226.023 24.2689 172.42 2.82885 109.884 2.82885H0V293.173H76.8293V195.796H106.355L156.34 293.173H242.104Z"
        fill="#1A2141" />
    <path
        d="M505.169 61.7412C505.19 61.7412 505.212 61.7372 505.234 61.7372H535.8V1.18121H505.169H496.177H394.57V61.7412H505.169Z"
        fill="#1A2141" />
    <path
        d="M510.174 144.597C502.874 136.41 482.796 118.369 447.181 117.549H445.882L394.57 117.545V178.451L445.882 178.454H445.961C462.481 179.598 474.889 191.454 474.889 206.182C474.889 206.291 474.873 206.395 474.87 206.503C474.681 222.909 460.282 233.91 446.814 233.91H445.882H335.248V233.866H295.625V294.819H326.254H335.248H445.882H446.814C495.58 294.819 535.265 255.231 535.44 206.503C535.441 206.395 535.449 206.29 535.449 206.182C535.449 182.941 526.477 161.091 510.174 144.597Z"
        fill="#1A2141" />
    <path
        d="M357.778 1.18088C308.902 1.18088 269.141 40.9435 269.141 89.8182C269.141 90.5155 269.174 91.2075 269.19 91.9009C269.711 114.362 278.601 135.405 294.417 151.404C301.717 159.593 321.789 177.632 357.411 178.449L367.735 178.45V117.545V91.9009V61.7395V1.18088H357.778Z"
        fill="#1A2141" />
    <path
        d="M693.503 234.601V296.001H805.018H814.082H844.955V234.556V208.537H785.03V234.556L693.503 234.601Z"
        fill="#F193BD" />
    <path
        d="M751.117 -0.000375032H741.079H638.666H629.603H598.728V61.0436H629.538C629.559 61.0436 629.58 61.0463 629.603 61.0463H741.079H751.117C764.785 61.0463 779.418 72.4196 779.418 89.3503C779.418 90.0596 779.363 90.7556 779.307 91.4503C778.187 105.305 766.115 116.201 750.256 117.298L741.079 117.3L661.16 117.304H659.851C623.954 118.13 603.715 136.317 596.356 144.569C579.926 161.197 570.882 183.221 570.882 206.65C570.882 206.76 570.89 206.866 570.891 206.974C571.067 256.094 611.068 296.001 660.222 296.001H661.16V234.601H660.222C646.646 234.601 632.133 223.512 631.942 206.974C631.941 206.865 631.923 206.76 631.923 206.65C631.923 191.804 644.428 179.853 661.082 178.698H661.16L741.079 178.696L751.486 178.694C787.392 177.87 807.623 159.686 814.98 151.432C830.923 135.305 839.883 114.093 840.408 91.4503C840.424 90.7503 840.459 90.053 840.459 89.3503C840.459 40.0823 800.381 -0.000375032 751.117 -0.000375032Z"
        fill="#EC6717" />
    <path
        d="M1130.18 203.942C1129.65 181.299 1120.69 160.087 1104.75 143.961C1097.39 135.706 1077.16 117.521 1041.26 116.698L1030.85 116.697L949.103 116.694V0.608573H888.543V139.578C888.543 139.606 888.547 139.633 888.547 139.659V178.066H937.691V178.089L1030.85 178.093L1040.03 178.094C1055.89 179.191 1067.96 190.087 1069.08 203.942C1069.13 204.637 1069.19 205.333 1069.19 206.041C1069.19 222.973 1054.55 234.346 1040.89 234.346H1030.85H919.373C919.351 234.346 919.331 234.349 919.308 234.349H888.5V295.393H919.373H928.436H1030.85H1040.89C1090.15 295.393 1130.23 255.31 1130.23 206.041C1130.23 205.338 1130.19 204.642 1130.18 203.942Z"
        fill="#F7AB22" />
    <path
        d="M983.343 62.0083V0.608271H1076.01H1085.07H1115.95V62.0536V88.0723H1056.02V62.0536L983.343 62.0083Z"
        fill="#EC6717" />
    <path
        d="M18.9489 390.285L28.1876 381.738L47.0423 415.066H32.0943L18.9489 390.285ZM20.3036 383.201C27.3289 383.201 31.1036 380.194 31.1036 374.385C31.1036 368.542 27.3289 366.592 20.3036 366.592H13.4716V383.201H20.3036ZM0.114258 355.986H21.3916C33.9223 355.986 44.1929 360.337 44.1929 374.385C44.1929 387.961 33.9223 393.805 21.3916 393.805H13.4716V415.066H0.114258V355.986Z"
        fill="#1A2141" />
    <path
        d="M56.4336 355.986H93.4496V367.189H69.7909V379.052H89.9323V390.254H69.7909V403.865H94.3576V415.066H56.4336V355.986Z"
        fill="#1A2141" />
    <path
        d="M100.725 355.986H114.861L121.982 383.517C123.741 389.98 124.925 395.942 126.715 402.461H127.078C128.87 395.942 130.127 389.98 131.811 383.517L138.785 355.986H152.441L134.621 415.066H118.575L100.725 355.986Z"
        fill="#1A2141" />
    <path
        d="M160.299 355.986H197.315V367.189H173.656V379.052H193.797V390.254H173.656V403.865H198.223V415.066H160.299V355.986Z"
        fill="#1A2141" />
    <path
        d="M229.336 390.285L238.574 381.738L257.429 415.066H242.481L229.336 390.285ZM230.69 383.201C237.716 383.201 241.49 380.194 241.49 374.385C241.49 368.542 237.716 366.592 230.69 366.592H223.858V383.201H230.69ZM210.501 355.986H231.778C244.309 355.986 254.58 360.337 254.58 374.385C254.58 387.961 244.309 393.805 231.778 393.805H223.858V415.066H210.501V355.986Z"
        fill="#1A2141" />
    <path
        d="M262.768 407.613L270.438 398.449C274.638 402.105 280.089 404.622 284.95 404.622C290.526 404.622 293.254 402.426 293.254 398.92C293.254 395.201 289.894 394.006 284.733 391.885L277.057 388.612C270.936 386.122 265.134 381.093 265.134 372.509C265.134 362.718 273.881 354.9 286.177 354.9C292.981 354.9 300.096 357.582 305.182 362.642L298.44 371.06C294.548 368.073 290.848 366.433 286.177 366.433C281.573 366.433 278.64 368.352 278.64 371.73C278.64 375.353 282.505 376.669 287.662 378.724L295.189 381.772C302.405 384.688 306.909 389.493 306.909 397.842C306.909 407.654 298.729 416.154 284.65 416.154C276.964 416.154 268.793 413.244 262.768 407.613Z"
        fill="#1A2141" />
    <path d="M317.729 355.986H331.086V415.066H317.729V355.986Z" fill="#1A2141" />
    <path
        d="M345.359 355.986H359.931L369.517 382.237C370.699 385.724 371.735 389.509 372.918 393.145H373.282C374.465 389.509 375.466 385.724 376.65 382.237L385.935 355.986H400.509V415.066H388.347V393.385C388.347 387.626 389.425 379.029 390.054 373.313H389.691L384.845 387.294L376.491 409.928H369.077L360.707 387.294L355.995 373.313H355.633C356.261 379.029 357.339 387.626 357.339 393.385V415.066H345.359V355.986Z"
        fill="#1A2141" />
    <path
        d="M440.862 390.613H469.288V400.994H440.862V390.613ZM447.182 355.988H463.165L481.719 415.066H467.583L459.855 385.145C458.211 379.24 456.634 372.253 455.056 366.09H454.694C453.266 372.329 451.687 379.24 450.045 385.145L442.285 415.066H428.63L447.182 355.988Z"
        fill="#EC6717" />
    <path
        d="M487.221 387.689V355.988H500.577V389.056C500.577 400.624 504.221 404.622 510.833 404.622C517.475 404.622 521.301 400.624 521.301 389.056V355.988H534.177V387.689C534.177 407.526 526.117 416.154 510.833 416.154C495.547 416.154 487.221 407.526 487.221 387.689Z"
        fill="#EC6717" />
    <path d="M559.517 367.189H543.256V355.986H589.135V367.189H572.875V415.066H559.517V367.189Z"
        fill="#EC6717" />
    <path
        d="M598.156 387.689V355.988H611.511V389.056C611.511 400.624 615.158 404.622 621.768 404.622C628.411 404.622 632.238 400.624 632.238 389.056V355.988H645.114V387.689C645.114 407.526 637.054 416.154 621.768 416.154C606.483 416.154 598.156 407.526 598.156 387.689Z"
        fill="#EC6717" />
    <path
        d="M659.176 355.986H673.746L683.334 382.237C684.517 385.724 685.55 389.509 686.733 393.145H687.096C688.28 389.509 689.282 385.724 690.466 382.237L699.752 355.986H714.325V415.066H702.162V393.385C702.162 387.626 703.24 379.029 703.87 373.313H703.508L698.661 387.294L690.306 409.928H682.894L674.526 387.294L669.812 373.313H669.449C670.078 379.029 671.156 387.626 671.156 393.385V415.066H659.176V355.986Z"
        fill="#EC6717" />
    <path
        d="M728.795 355.986H742.483L757.898 385.37L763.742 398.349H764.103C763.472 392.1 762.396 383.822 762.396 376.858V355.986H775.123V415.066H761.436L746.022 385.608L740.178 372.704H739.816C740.444 379.22 741.522 387.136 741.522 394.098V415.066H728.795V355.986Z"
        fill="#EC6717" />
    <path
        d="M807.014 407.613L814.683 398.449C818.884 402.105 824.335 404.622 829.195 404.622C834.772 404.622 837.499 402.426 837.499 398.92C837.499 395.201 834.14 394.006 828.979 391.885L821.302 388.612C815.182 386.122 809.38 381.093 809.38 372.509C809.38 362.718 818.127 354.9 830.423 354.9C837.227 354.9 844.34 357.582 849.427 362.642L842.686 371.06C838.792 368.073 835.094 366.433 830.423 366.433C825.818 366.433 822.886 368.352 822.886 371.73C822.886 375.353 826.751 376.669 831.907 378.724L839.434 381.772C846.648 384.688 851.155 389.493 851.155 397.842C851.155 407.654 842.975 416.154 828.896 416.154C821.208 416.154 813.039 413.244 807.014 407.613Z"
        fill="#1A2141" />
    <path
        d="M860.828 387.689V355.988H874.185V389.056C874.185 400.624 877.831 404.622 884.44 404.622C891.083 404.622 894.909 400.624 894.909 389.056V355.988H907.787V387.689C907.787 407.526 899.725 416.154 884.44 416.154C869.155 416.154 860.828 407.526 860.828 387.689Z"
        fill="#1A2141" />
    <path
        d="M991.467 355.986H1006.04L1015.63 382.237C1016.81 385.724 1017.84 389.509 1019.03 393.145H1019.39C1020.57 389.509 1021.57 385.724 1022.76 382.237L1032.04 355.986H1046.62V415.066H1034.45V393.385C1034.45 387.626 1035.53 379.029 1036.16 373.313H1035.8L1030.95 387.294L1022.6 409.928H1015.19L1006.82 387.294L1002.1 373.313H1001.74C1002.37 379.029 1003.45 387.626 1003.45 393.385V415.066H991.467V355.986Z"
        fill="#1A2141" />
    <path
        d="M922.027 355.254H936.599L946.186 381.505C947.369 384.991 948.403 388.777 949.586 392.413H949.95C951.133 388.777 952.134 384.991 953.318 381.505L962.603 355.254H977.178V414.334H965.014V392.653C965.014 386.894 966.093 378.297 966.723 372.581H966.361L961.513 386.562L953.159 409.195H945.746L937.378 386.562L932.665 372.581H932.302C932.93 378.297 934.007 386.894 934.007 392.653V414.334H922.027V355.254Z"
        fill="#1A2141" />
    <path d="M1061.08 355.986H1074.43V415.066H1061.08V355.986Z" fill="#1A2141" />
    <path d="M1099.76 367.189H1083.5V355.986H1129.37V367.189H1113.11V415.066H1099.76V367.189Z"
        fill="#1A2141" />
</svg>