<svg width="717" height="360" viewBox="0 0 717 360" fill="none" xmlns="http://www.w3.org/2000/svg">
<mask id="mask0_3519_557" style="mask-type:luminance" maskUnits="userSpaceOnUse" x="0" y="0" width="717" height="360">
<path d="M0.333496 0.666534H716.333V359.667H0.333496V0.666534Z" fill="white"/>
</mask>
<g mask="url(#mask0_3519_557)">
<path d="M52.0542 129.253H69.104C87.7983 129.253 97.6992 134.222 97.6992 149.659C97.6992 165.096 87.7983 173.365 69.104 173.365H52.0542V129.253ZM153.793 270.979L114.95 201.389C132.347 191.988 143.892 175.261 143.892 149.659C143.892 104.986 110.9 91.7595 72.4043 91.7595H4.76465V270.979H52.0542V210.869H70.2339L101 270.979H153.793Z" fill="#1B2141"/>
</g>
<mask id="mask1_3519_557" style="mask-type:luminance" maskUnits="userSpaceOnUse" x="0" y="0" width="717" height="360">
<path d="M0.333496 0.666534H716.333V359.667H0.333496V0.666534Z" fill="white"/>
</mask>
<g mask="url(#mask1_3519_557)">
<path d="M315.722 126.738C315.722 126.738 315.745 126.738 315.767 126.738H329.069V89.3574H315.722H310.185H247.646V126.738H315.722Z" fill="#1B2141"/>
</g>
<mask id="mask2_3519_557" style="mask-type:luminance" maskUnits="userSpaceOnUse" x="0" y="0" width="717" height="360">
<path d="M0.333496 0.666534H716.333V359.667H0.333496V0.666534Z" fill="white"/>
</mask>
<g mask="url(#mask2_3519_557)">
<path d="M330.249 177.883C325.751 172.834 313.4 161.694 291.473 161.189H290.678H247.64V198.783H290.678H290.723C300.893 199.49 308.534 206.804 308.534 215.903C308.534 215.97 308.522 216.026 308.522 216.094C308.399 226.224 299.539 233.011 291.249 233.011H290.678H211.124V232.989H186.735V270.617H205.586H211.124H290.678H291.249C321.265 270.617 345.699 246.171 345.799 216.094C345.799 216.026 345.81 215.97 345.81 215.903C345.81 201.554 340.284 188.069 330.249 177.883Z" fill="#1B2141"/>
</g>
<mask id="mask3_3519_557" style="mask-type:luminance" maskUnits="userSpaceOnUse" x="0" y="0" width="717" height="360">
<path d="M0.333496 0.666534H716.333V359.667H0.333496V0.666534Z" fill="white"/>
</mask>
<g mask="url(#mask3_3519_557)">
<path d="M224.995 89.3565C194.912 89.3565 170.434 113.903 170.434 144.07C170.434 144.497 170.456 144.923 170.467 145.36C170.78 159.216 176.262 172.207 185.995 182.091C190.482 187.139 202.844 198.279 224.771 198.784H231.126V161.19V145.36V126.737V89.3565H224.995Z" fill="#1B2141"/>
</g>
<mask id="mask4_3519_557" style="mask-type:luminance" maskUnits="userSpaceOnUse" x="0" y="0" width="717" height="360">
<path d="M0.333496 0.666534H716.333V359.667H0.333496V0.666534Z" fill="white"/>
</mask>
<g mask="url(#mask4_3519_557)">
<path d="M437.092 232.845V270.181H508.01H513.514H532.231V232.823V216.993H495.894V232.823L437.092 232.845Z" fill="#F391BC"/>
</g>
<mask id="mask5_3519_557" style="mask-type:luminance" maskUnits="userSpaceOnUse" x="0" y="0" width="717" height="360">
<path d="M0.333496 0.666534H716.333V359.667H0.333496V0.666534Z" fill="white"/>
</mask>
<g mask="url(#mask5_3519_557)">
<path d="M475.327 90.1797H469.241H407.139H401.635H382.918V127.303H401.601H401.635H469.241H475.327C483.617 127.303 492.488 134.225 492.488 144.512C492.488 144.95 492.455 145.365 492.421 145.791C491.739 154.216 484.422 160.847 474.801 161.509H469.241L420.777 161.52H419.982C398.211 162.013 385.939 173.075 381.475 178.09C371.518 188.209 366.025 201.604 366.025 215.852C366.025 215.919 366.036 215.976 366.036 216.043C366.137 245.918 390.402 270.185 420.206 270.185H420.777V232.849H420.206C411.972 232.849 403.167 226.106 403.056 216.043C403.056 215.976 403.044 215.919 403.044 215.852C403.044 206.821 410.629 199.551 420.732 198.845H420.777H469.241H475.551C497.321 198.351 509.594 187.289 514.058 182.263C523.724 172.458 529.161 159.556 529.474 145.791C529.485 145.365 529.508 144.938 529.508 144.512C529.508 114.558 505.197 90.1797 475.327 90.1797Z" fill="#EC6717"/>
</g>
<mask id="mask6_3519_557" style="mask-type:luminance" maskUnits="userSpaceOnUse" x="0" y="0" width="717" height="360">
<path d="M0.333496 0.666534H716.333V359.667H0.333496V0.666534Z" fill="white"/>
</mask>
<g mask="url(#mask6_3519_557)">
<path d="M711.875 214.649C711.562 200.884 706.125 187.982 696.459 178.177C691.995 173.151 679.722 162.101 657.952 161.596H651.642H595.391V90.9964H558.663V175.507C558.663 175.53 558.663 175.541 558.663 175.563V198.91H588.466V198.932H651.642H657.202C666.823 199.594 674.14 206.224 674.822 214.649C674.856 215.076 674.889 215.491 674.889 215.928C674.889 226.227 666.018 233.138 657.728 233.138H651.642H577.357H577.323H558.64V270.261H577.357H582.861H651.642H657.728C687.598 270.261 711.909 245.882 711.909 215.928C711.909 215.502 711.886 215.076 711.875 214.649Z" fill="#F7AA1F"/>
</g>
<mask id="mask7_3519_557" style="mask-type:luminance" maskUnits="userSpaceOnUse" x="0" y="0" width="717" height="360">
<path d="M0.333496 0.666534H716.333V359.667H0.333496V0.666534Z" fill="white"/>
</mask>
<g mask="url(#mask7_3519_557)">
<path d="M611.919 128.337V91.0009H671.504H677.008H695.725V128.359V144.189H659.388V128.359L611.919 128.337Z" fill="#EC6717"/>
</g>
</svg>
