<svg xmlns="http://www.w3.org/2000/svg" width="393" height="146" viewBox="0 0 393 146" fill="none">
    <path
        d="M26.6625 22.7987H36.2735C46.8146 22.7987 52.3949 25.5898 52.3949 34.2703C52.3949 42.9508 46.8146 47.6015 36.2735 47.6015H26.6625V22.7987ZM84.0186 102.477L62.1207 63.3509C71.9284 58.0686 78.4378 48.6658 78.4378 34.2703C78.4378 9.15742 59.8358 1.71698 38.1336 1.71698H0V102.477H26.6625V68.6832H36.9088L54.2555 102.477H84.0186Z"
        fill="#1A2141" />
    <path
        d="M175.311 22.1611C175.319 22.1611 175.326 22.1597 175.334 22.1597H185.941V1.14468H175.311H172.191H136.93V22.1611H175.311Z"
        fill="#1A2141" />
    <path
        d="M177.048 50.9153C174.515 48.0742 167.547 41.8133 155.187 41.5287H154.736L136.929 41.5273V62.6641L154.736 62.665H154.764C160.497 63.062 164.803 67.1764 164.803 72.2876C164.803 72.3255 164.797 72.3616 164.796 72.3991C164.731 78.0923 159.734 81.9102 155.06 81.9102H154.736H116.342V81.8949H102.592V103.048H113.221H116.342H154.736H155.06C171.983 103.048 185.755 89.3094 185.816 72.3991C185.816 72.3616 185.819 72.3251 185.819 72.2876C185.819 64.222 182.706 56.6395 177.048 50.9153Z"
        fill="#1A2141" />
    <path
        d="M124.162 1.14537C107.2 1.14537 93.4014 14.9444 93.4014 31.9056C93.4014 32.1476 93.4129 32.3878 93.4185 32.6284C93.5994 40.4233 96.6843 47.7258 102.173 53.2779C104.706 56.1199 111.672 62.38 124.034 62.6636L127.617 62.6641V41.5278V32.6284V22.1614V1.14537H124.162Z"
        fill="#1A2141" />
    <path
        d="M240.67 82.15V103.458H279.369H282.515H293.229V82.1343V73.1049H272.433V82.1343L240.67 82.15Z"
        fill="#F193BD" />
    <path
        d="M260.664 0.735123H257.181H221.64H218.495H207.78V21.9195H218.472C218.479 21.9195 218.487 21.9205 218.495 21.9205H257.181H260.664C265.407 21.9205 270.486 25.8674 270.486 31.7429C270.486 31.9891 270.467 32.2306 270.447 32.4717C270.058 37.2798 265.869 41.0611 260.366 41.4419L257.181 41.4424L229.446 41.4437H228.992C216.534 41.7306 209.511 48.042 206.957 50.9058C201.255 56.6763 198.116 64.3194 198.116 72.4502C198.116 72.4881 198.119 72.5251 198.119 72.5626C198.181 89.609 212.062 103.458 229.12 103.458H229.446V82.15H229.12C224.409 82.15 219.372 78.3017 219.306 72.5626C219.306 72.5247 219.3 72.4881 219.3 72.4502C219.3 67.2979 223.639 63.1506 229.419 62.7499H229.446L257.181 62.7489L260.792 62.7485C273.253 62.4625 280.274 56.152 282.827 53.2874C288.36 47.6908 291.469 40.3295 291.651 32.4717C291.657 32.2288 291.669 31.9868 291.669 31.7429C291.669 14.6452 277.76 0.735123 260.664 0.735123Z"
        fill="#EC6717" />
    <path
        d="M392.212 71.5105C392.03 63.6527 388.92 56.2914 383.387 50.6948C380.834 47.8302 373.813 41.5192 361.353 41.2337L357.741 41.2333L329.372 41.2323V0.946647H308.356V49.1739C308.356 49.1836 308.357 49.1929 308.357 49.2021V62.5306H325.412V62.5385L357.741 62.5398L360.926 62.5403C366.429 62.9211 370.619 66.7024 371.008 71.5105C371.027 71.7515 371.046 71.9931 371.046 72.2388C371.046 78.1148 365.968 82.0617 361.224 82.0617H357.741H319.055C319.047 82.0617 319.04 82.0627 319.032 82.0627H308.341V103.247H319.055H322.2H357.741H361.224C378.321 103.247 392.229 89.337 392.229 72.2388C392.229 71.9949 392.217 71.7534 392.212 71.5105Z"
        fill="#F7AB22" />
    <path
        d="M341.254 22.2547V0.94672H373.413H376.558H387.273V22.2704V31.2998H366.476V22.2704L341.254 22.2547Z"
        fill="#EC6717" />
    <path
        d="M6.57633 136.177L9.78247 133.211L16.3257 144.777H11.1382L6.57633 136.177ZM7.04645 133.719C9.48449 133.719 10.7944 132.676 10.7944 130.659C10.7944 128.632 9.48449 127.955 7.04645 127.955H4.6755V133.719H7.04645ZM0.0400391 124.275H7.42402C11.7726 124.275 15.3369 125.784 15.3369 130.659C15.3369 135.371 11.7726 137.399 7.42402 137.399H4.6755V144.777H0.0400391V124.275Z"
        fill="#1A2141" />
    <path
        d="M19.585 124.275H32.4308V128.162H24.2204V132.279H31.2102V136.167H24.2204V140.89H32.7459V144.777H19.585V124.275Z"
        fill="#1A2141" />
    <path
        d="M34.9561 124.275H39.8617L42.3331 133.829C42.9434 136.071 43.3543 138.141 43.9757 140.403H44.1016C44.7235 138.141 45.1598 136.071 45.7442 133.829L48.1642 124.275H52.9033L46.7192 144.777H41.1509L34.9561 124.275Z"
        fill="#1A2141" />
    <path
        d="M55.6299 124.275H68.4757V128.162H60.2653V132.279H67.2551V136.167H60.2653V140.89H68.7908V144.777H55.6299V124.275Z"
        fill="#1A2141" />
    <path
        d="M79.5881 136.177L82.7942 133.211L89.3374 144.777H84.1499L79.5881 136.177ZM80.0582 133.719C82.4962 133.719 83.8061 132.676 83.8061 130.659C83.8061 128.632 82.4962 127.955 80.0582 127.955H77.6872V133.719H80.0582ZM73.0518 124.275H80.4357C84.7843 124.275 88.3486 125.784 88.3486 130.659C88.3486 135.371 84.7843 137.399 80.4357 137.399H77.6872V144.777H73.0518V124.275Z"
        fill="#1A2141" />
    <path
        d="M91.1895 142.191L93.8514 139.011C95.309 140.28 97.2006 141.153 98.8876 141.153C100.823 141.153 101.769 140.391 101.769 139.174C101.769 137.884 100.603 137.469 98.8122 136.733L96.1484 135.597C94.024 134.733 92.0108 132.988 92.0108 130.009C92.0108 126.611 95.0462 123.898 99.3133 123.898C101.675 123.898 104.144 124.829 105.909 126.585L103.569 129.506C102.218 128.469 100.934 127.9 99.3133 127.9C97.7156 127.9 96.6976 128.566 96.6976 129.739C96.6976 130.996 98.039 131.452 99.8288 132.166L102.441 133.223C104.945 134.235 106.508 135.903 106.508 138.8C106.508 142.205 103.669 145.155 98.7835 145.155C96.116 145.155 93.2805 144.145 91.1895 142.191Z"
        fill="#1A2141" />
    <path d="M110.264 124.275H114.899V144.777H110.264V124.275Z" fill="#1A2141" />
    <path
        d="M119.853 124.275H124.91L128.236 133.384C128.646 134.594 129.006 135.908 129.416 137.17H129.543C129.953 135.908 130.301 134.594 130.712 133.384L133.934 124.275H138.991V144.777H134.771V137.253C134.771 135.255 135.145 132.271 135.363 130.287H135.237L133.555 135.139L130.656 142.994H128.083L125.179 135.139L123.544 130.287H123.418C123.636 132.271 124.01 135.255 124.01 137.253V144.777H119.853V124.275Z"
        fill="#1A2141" />
    <path
        d="M152.995 136.291H162.86V139.894H152.995V136.291ZM155.188 124.275H160.735L167.174 144.777H162.268L159.586 134.394C159.016 132.344 158.468 129.92 157.921 127.781H157.795C157.3 129.946 156.752 132.344 156.182 134.394L153.489 144.777H148.75L155.188 124.275Z"
        fill="#EC6717" />
    <path
        d="M169.083 135.277V124.275H173.718V135.751C173.718 139.766 174.983 141.153 177.277 141.153C179.582 141.153 180.91 139.766 180.91 135.751V124.275H185.378V135.277C185.378 142.161 182.581 145.155 177.277 145.155C171.973 145.155 169.083 142.161 169.083 135.277Z"
        fill="#EC6717" />
    <path d="M194.173 128.162H188.529V124.275H204.451V128.162H198.808V144.777H194.173V128.162Z"
        fill="#EC6717" />
    <path
        d="M207.582 135.277V124.275H212.217V135.751C212.217 139.766 213.482 141.153 215.776 141.153C218.081 141.153 219.409 139.766 219.409 135.751V124.275H223.878V135.277C223.878 142.161 221.081 145.155 215.776 145.155C210.472 145.155 207.582 142.161 207.582 135.277Z"
        fill="#EC6717" />
    <path
        d="M228.758 124.275H233.814L237.142 133.384C237.552 134.594 237.911 135.908 238.321 137.17H238.447C238.858 135.908 239.206 134.594 239.617 133.384L242.839 124.275H247.897V144.777H243.676V137.253C243.676 135.255 244.05 132.271 244.268 130.287H244.143L242.461 135.139L239.561 142.994H236.989L234.085 135.139L232.449 130.287H232.323C232.541 132.271 232.915 135.255 232.915 137.253V144.777H228.758V124.275Z"
        fill="#EC6717" />
    <path
        d="M252.918 124.275H257.668L263.018 134.472L265.046 138.976H265.171C264.952 136.807 264.579 133.935 264.579 131.518V124.275H268.995V144.777H264.246L258.896 134.554L256.868 130.076H256.743C256.961 132.337 257.335 135.084 257.335 137.501V144.777H252.918V124.275Z"
        fill="#EC6717" />
    <path
        d="M280.062 142.191L282.724 139.011C284.182 140.28 286.074 141.153 287.76 141.153C289.696 141.153 290.642 140.391 290.642 139.174C290.642 137.884 289.476 137.469 287.685 136.733L285.021 135.597C282.897 134.733 280.884 132.988 280.884 130.009C280.884 126.611 283.919 123.898 288.186 123.898C290.548 123.898 293.016 124.829 294.781 126.585L292.442 129.506C291.091 128.469 289.807 127.9 288.186 127.9C286.588 127.9 285.571 128.566 285.571 129.739C285.571 130.996 286.912 131.452 288.701 132.166L291.313 133.223C293.817 134.235 295.381 135.903 295.381 138.8C295.381 142.205 292.542 145.155 287.657 145.155C284.989 145.155 282.154 144.145 280.062 142.191Z"
        fill="#1A2141" />
    <path
        d="M298.738 135.277V124.275H303.374V135.751C303.374 139.766 304.639 141.153 306.932 141.153C309.238 141.153 310.566 139.766 310.566 135.751V124.275H315.035V135.277C315.035 142.161 312.237 145.155 306.932 145.155C301.628 145.155 298.738 142.161 298.738 135.277Z"
        fill="#1A2141" />
    <path
        d="M344.074 124.275H349.131L352.458 133.384C352.869 134.594 353.228 135.908 353.638 137.17H353.764C354.175 135.908 354.522 134.594 354.933 133.384L358.156 124.275H363.213V144.777H358.992V137.253C358.992 135.255 359.366 132.271 359.585 130.287H359.459L357.777 135.139L354.878 142.994H352.305L349.401 135.139L347.766 130.287H347.64C347.858 132.271 348.232 135.255 348.232 137.253V144.777H344.074V124.275Z"
        fill="#1A2141" />
    <path
        d="M319.977 124.021H325.034L328.36 133.131C328.771 134.34 329.13 135.654 329.54 136.916H329.667C330.077 135.654 330.425 134.34 330.836 133.131L334.058 124.021H339.116V144.523H334.894V136.999C334.894 135.001 335.269 132.017 335.488 130.034H335.362L333.679 134.886L330.78 142.74H328.208L325.304 134.886L323.668 130.034H323.542C323.76 132.017 324.134 135.001 324.134 136.999V144.523H319.977V124.021Z"
        fill="#1A2141" />
    <path d="M368.23 124.275H372.866V144.777H368.23V124.275Z" fill="#1A2141" />
    <path d="M381.655 128.162H376.012V124.275H391.933V128.162H386.29V144.777H381.655V128.162Z"
        fill="#1A2141" />
</svg>